<svg xmlns="http://www.w3.org/2000/svg" viewBox="0 0 1024 1024">
  <defs>
    <linearGradient id="bg" x1="0" y1="0" x2="1" y2="1">
      <stop offset="0%" stop-color="#1a1a2e"/>
      <stop offset="50%" stop-color="#16213e"/>
      <stop offset="100%" stop-color="#0f3460"/>
    </linearGradient>
    <linearGradient id="carGrad" x1="0" y1="0" x2="1" y2="1">
      <stop offset="0%" stop-color="#0ea5e9"/>
      <stop offset="100%" stop-color="#8b5cf6"/>
    </linearGradient>
  </defs>

  <!-- Background -->
  <rect width="1024" height="1024" rx="224" fill="url(#bg)"/>

  <!-- Subtle car silhouette -->
  <g transform="translate(512,440)">
    <!-- Car body -->
    <path d="M-380,80 L-380,10 Q-340,-90 -240,-120 Q-100,-170 60,-170 Q240,-150 350,-100 Q390,-70 400,-10 L400,80 Z" fill="url(#carGrad)" opacity="0.88"/>
    <!-- Glasshouse -->
    <path d="M-250,-30 Q-140,-100 -20,-110 Q100,-100 200,-60 Q220,-40 220,-20 Q150,-10 0,-5 Q-180,-10 -250,-30 Z" fill="#1a1a2e" opacity="0.55"/>
    <!-- Character line -->
    <path d="M-370,30 Q-200,10 0,5 Q200,10 390,30" fill="none" stroke="#fff" stroke-width="4" opacity="0.18"/>
    <!-- Wheels -->
    <circle cx="-200" cy="110" r="65" fill="#111" stroke="#888" stroke-width="12"/>
    <circle cx="-200" cy="110" r="25" fill="#888" opacity="0.5"/>
    <circle cx="220" cy="110" r="65" fill="#111" stroke="#888" stroke-width="12"/>
    <circle cx="220" cy="110" r="25" fill="#888" opacity="0.5"/>
  </g>

  <!-- kuCar text -->
  <text x="512" y="800" text-anchor="middle" fill="url(#carGrad)" font-family="system-ui,-apple-system,sans-serif" font-size="140" font-weight="800" letter-spacing="8">kuCar</text>
  <text x="512" y="870" text-anchor="middle" fill="#0ea5e9" font-family="system-ui,-apple-system,sans-serif" font-size="42" font-weight="400" letter-spacing="12" opacity="0.5">3D STUDIO</text>
</svg>
